<svg aria-hidden="true" style="position: absolute; width: 0; height: 0; overflow: hidden;" version="1.1" xmlns="http://www.w3.org/2000/svg" xmlns:xlink="http://www.w3.org/1999/xlink">
<defs>
<symbol id="icon-iconmonstr-angel-up-thin" viewBox="0 0 32 32">
<path d="M30.993 26.667l-14.993-19.165-14.959 19.165-1.041-0.825 16-20.508 16 20.521-1.007 0.812z"></path>
</symbol>
<symbol id="icon-iconmonstr-arrow-up-thin" viewBox="0 0 32 32">
<path d="M14.667 2.941l-8.313 10.037-1.020-0.86 10.028-12 9.972 12-1.019 0.861-8.315-10.040v29.179h-1.333v-29.177z"></path>
</symbol>
<symbol id="icon-iconmonstr-care-up-thin" viewBox="0 0 32 32">
<path d="M0 28l16-24 16 24h-32zM16 6.404l-13.509 20.263h27.017l-13.508-20.263z"></path>
</symbol>
<symbol id="icon-iconmonstr-cursor-31" viewBox="0 0 32 32">
<path d="M24.715 10.073c-1.584-0.336-6.141-1.205-7.381-1.451v-4.683c0-2.172-1.795-3.94-4-3.94s-4 1.768-4 3.94v9.943c-0.739-0.448-1.584-0.828-2.451-0.953-2.429-0.349-4.216 1.253-4.216 3.331 0 1.073 0.484 2.151 1.363 3.028 5.296 5.296 7.584 6.833 8.079 12.712h13.225v-2.331c0-6.872 4-8.041 4-13.372 0-3.264-1.415-5.543-4.619-6.224zM25.191 20.769c-1.095 1.977-2.451 4.425-2.521 8.564h-8.173c-0.968-5.093-5.080-8.424-8.581-11.932-0.917-0.915-0.524-1.827 0.589-1.831 1.684-0.008 4.080 2.512 5.496 4.273v-15.904c0-0.689 0.611-1.273 1.333-1.273s1.333 0.584 1.333 1.273v9.264c0 0.42 0.341 0.761 0.763 0.761 0.419 0 0.76-0.341 0.76-0.761v-0.767c0-0.712 0.653-1.251 1.352-1.111 0.531 0.105 0.915 0.571 0.915 1.111v1.697c0 0.42 0.341 0.761 0.761 0.761s0.761-0.341 0.761-0.761v-1.107c0-0.708 0.649-1.243 1.344-1.104 0.528 0.104 0.909 0.565 0.909 1.104v2.044c0 0.42 0.341 0.761 0.761 0.761s0.761-0.341 0.761-0.761v-1.216c0-0.697 0.727-1.156 1.357-0.861 0.86 0.407 1.555 1.243 1.555 3.303 0 1.807-0.62 2.924-1.476 4.472z"></path>
</symbol>
</defs>
</svg>
